# xmcd
#
# Track frame offsets:
#	150
#	14033
#	31430
#	44437
#	53820
#	67990
#	84338
#	95881
#	110646
#	122243
#	131692
#	146000
#	159565
#	173839
#	187131
#	198713
#
# Disc length: 2844 seconds
#
# Revision: 0
# Processed by: cddbd v1.5.1PL2 Copyright (c) Steve Scherf et al.
# Submitted via: dBpowerAMP V4.0
#
DISCID=f30b1a10
DTITLE=Various Artist - Essential Country Duets/Disc Two
DYEAR=2005
DGENRE=Country
TTITLE0=George Jones and Tammy Wynette - Golden Ring
TTITLE1=Willie Nelson and Ray Price - Funny How Time Slips Away
TTITLE2=O'Kanes - Can't Stop My Heart From Loving You
TTITLE3=Ernest Tubb and Merle Haggard - Walking The Floor Over You
TTITLE4=Larry Gatlin and Bros - Houston
TTITLE5=Tammy Wynette and David Houston
TTITLE6=Willie Nelson and Faron Young - Hello Walls
TTITLE7=Ernest Tubb and Marty Robbins - Rainbow At Midnight
TTITLE8=Kendalls - Bye Bye Love
TTITLE9=Doug and Rusty Kershaw - Diggy Liggy Lo
TTITLE10=Vic Willis Trio - If I said You Had A beautiful Body
TTITLE11=LOnzo and Oscar - Seven Bridges Road
TTITLE12=Ernest Tubb and George Jones - Filipino Baby
TTITLE13=Sweethearts Of The Rodeo - Blue To The Bone
TTITLE14=Patsy Cline and Willie Nelson - Just Out Of Reach
TTITLE15=Johnny Russell and David Wilkins - Butter Beans
EXTD=
EXTT0=
EXTT1=
EXTT2=
EXTT3=
EXTT4=
EXTT5=
EXTT6=
EXTT7=
EXTT8=
EXTT9=
EXTT10=
EXTT11=
EXTT12=
EXTT13=
EXTT14=
EXTT15=
PLAYORDER=
